<svg xmlns="http://www.w3.org/2000/svg" viewBox="0 0 680 460" font-family="Microsoft JhengHei, sans-serif">
<defs>
  <pattern id="grid" width="15" height="15" patternUnits="userSpaceOnUse">
    <path d="M 15 0 L 0 0 0 15" fill="none" stroke="#2a2a4a" stroke-width="0.3"/>
  </pattern>
</defs>
<rect width="680" height="460" fill="#1a1a2e"/>
<rect x="20" y="20" width="640" height="420" fill="url(#grid)"/>
<rect x="20" y="20" width="640" height="420" fill="none" stroke="#4a2a6a" stroke-width="2"/>
<text x="340.0" y="12" text-anchor="middle" fill="#C084FC" font-size="14" font-weight="bold">B1雜魚層——入口防衛戰</text>
<text x="25" y="452" fill="#666" font-size="9">OPM_BM-01 | 16×12格（概念） | 1格 = 5ft | 總 80×60ft</text>
<text x="27.5" y="15" text-anchor="middle" fill="#555" font-size="7">1</text>
<text x="42.5" y="15" text-anchor="middle" fill="#555" font-size="7">2</text>
<text x="57.5" y="15" text-anchor="middle" fill="#555" font-size="7">3</text>
<text x="72.5" y="15" text-anchor="middle" fill="#555" font-size="7">4</text>
<text x="87.5" y="15" text-anchor="middle" fill="#555" font-size="7">5</text>
<text x="102.5" y="15" text-anchor="middle" fill="#555" font-size="7">6</text>
<text x="117.5" y="15" text-anchor="middle" fill="#555" font-size="7">7</text>
<text x="132.5" y="15" text-anchor="middle" fill="#555" font-size="7">8</text>
<text x="147.5" y="15" text-anchor="middle" fill="#555" font-size="7">9</text>
<text x="162.5" y="15" text-anchor="middle" fill="#555" font-size="7">10</text>
<text x="177.5" y="15" text-anchor="middle" fill="#555" font-size="7">11</text>
<text x="192.5" y="15" text-anchor="middle" fill="#555" font-size="7">12</text>
<text x="207.5" y="15" text-anchor="middle" fill="#555" font-size="7">13</text>
<text x="222.5" y="15" text-anchor="middle" fill="#555" font-size="7">14</text>
<text x="237.5" y="15" text-anchor="middle" fill="#555" font-size="7">15</text>
<text x="252.5" y="15" text-anchor="middle" fill="#555" font-size="7">16</text>
<text x="8" y="30.5" text-anchor="middle" fill="#555" font-size="7">A</text>
<text x="8" y="45.5" text-anchor="middle" fill="#555" font-size="7">B</text>
<text x="8" y="60.5" text-anchor="middle" fill="#555" font-size="7">C</text>
<text x="8" y="75.5" text-anchor="middle" fill="#555" font-size="7">D</text>
<text x="8" y="90.5" text-anchor="middle" fill="#555" font-size="7">E</text>
<text x="8" y="105.5" text-anchor="middle" fill="#555" font-size="7">F</text>
<text x="8" y="120.5" text-anchor="middle" fill="#555" font-size="7">G</text>
<text x="8" y="135.5" text-anchor="middle" fill="#555" font-size="7">H</text>
<text x="8" y="150.5" text-anchor="middle" fill="#555" font-size="7">I</text>
<text x="8" y="165.5" text-anchor="middle" fill="#555" font-size="7">J</text>
<text x="8" y="180.5" text-anchor="middle" fill="#555" font-size="7">K</text>
<text x="8" y="195.5" text-anchor="middle" fill="#555" font-size="7">L</text>
<rect x="20.0" y="20.0" width="5.0" height="420.0" rx="3" fill="#334" stroke="" stroke-width=""/>
<text x="22.5" y="226.0" text-anchor="middle" fill="#aaa" font-size="8">L</text>
<text x="22.5" y="240.0" text-anchor="middle" fill="#666" font-size="6">(2.5, 70.0)ft</text>
<rect x="655.0" y="20.0" width="5.0" height="420.0" rx="3" fill="#334" stroke="" stroke-width=""/>
<rect x="20.0" y="20.0" width="640.0" height="5.0" rx="5" fill="#334" stroke="" stroke-width=""/>
<text x="340.0" y="18.5" text-anchor="middle" fill="#aaa" font-size="8">B1雜魚層——入口防衛戰</text>
<text x="340.0" y="32.5" text-anchor="middle" fill="#666" font-size="6">(107.5, 2.5)ft</text>
<rect x="20.0" y="435.0" width="640.0" height="5.0" rx="5" fill="#334" stroke="" stroke-width=""/>
<text x="340.0" y="433.5" text-anchor="middle" fill="#aaa" font-size="8">玩家進場區</text>
<text x="340.0" y="447.5" text-anchor="middle" fill="#666" font-size="6">(107.5, 142.5)ft</text>
<rect x="250.0" y="20.0" width="5.0" height="200.0" rx="3" fill="#334" stroke="" stroke-width=""/>
<rect x="430.0" y="20.0" width="5.0" height="200.0" rx="3" fill="#334" stroke="" stroke-width=""/>
<text x="432.5" y="116.0" text-anchor="middle" fill="#aaa" font-size="8">虎×2</text>
<text x="432.5" y="130.0" text-anchor="middle" fill="#666" font-size="6">(137.5, 32.5)ft</text>
<rect x="250.0" y="380.0" width="180.0" height="30.0" rx="5" fill="#1a2a2a" stroke="#10B981" stroke-width=""/>
<text x="340.0" y="391.0" text-anchor="middle" fill="#aaa" font-size="8">入口通道</text>
<text x="340.0" y="405.0" text-anchor="middle" fill="#666" font-size="6">(105.0, 125.0)ft</text>
<rect x="250.0" y="410.0" width="180.0" height="25.0" rx="5" fill="none" stroke="#00FF88" stroke-width="1.5"/>
<text x="340.0" y="418.5" text-anchor="middle" fill="#aaa" font-size="8">玩家進場區</text>
<text x="340.0" y="432.5" text-anchor="middle" fill="#666" font-size="6">(105.0, 135.0)ft</text>
<rect x="100.0" y="100.0" width="480.0" height="240.0" rx="3" fill="#0d0d1a" stroke="#4a2a6a" stroke-width=""/>
<rect x="120.0" y="180.0" width="60.0" height="30.0" rx="3" fill="#334" stroke="#667" stroke-width=""/>
<text x="150.0" y="191.0" text-anchor="middle" fill="#aaa" font-size="8">碎石堆</text>
<text x="150.0" y="205.0" text-anchor="middle" fill="#666" font-size="6">(45.0, 60.0)ft</text>
<rect x="450.0" y="160.0" width="60.0" height="30.0" rx="3" fill="#334" stroke="#667" stroke-width=""/>
<text x="480.0" y="171.0" text-anchor="middle" fill="#aaa" font-size="8">鋼筋</text>
<text x="480.0" y="185.0" text-anchor="middle" fill="#666" font-size="6">(155.0, 50.0)ft</text>
<rect x="280.0" y="300.0" width="60.0" height="20.0" rx="5" fill="#334" stroke="#667" stroke-width=""/>
<text x="310.0" y="306.0" text-anchor="middle" fill="#aaa" font-size="8">貨櫃</text>
<text x="310.0" y="320.0" text-anchor="middle" fill="#666" font-size="6">(95.0, 97.5)ft</text>
<rect x="580.0" y="300.0" width="50.0" height="50.0" rx="3" fill="#1a2a20" stroke="#10B981" stroke-width="2"/>
<text x="605.0" y="321.0" text-anchor="middle" fill="#aaa" font-size="8">電梯↓B2</text>
<text x="605.0" y="335.0" text-anchor="middle" fill="#666" font-size="6">(192.5, 102.5)ft</text>
</svg>