<svg xmlns="http://www.w3.org/2000/svg" viewBox="0 0 900 640" font-family="Microsoft JhengHei, sans-serif">
<rect width="900" height="640" fill="#1a1a2e"/>
<text x="450.0" y="25" text-anchor="middle" fill="#C084FC" font-size="16" font-weight="bold">怪人協會地下基地——探索地圖</text>
<text x="20" y="-5.0" fill="#8B5CF6" font-size="13" font-weight="bold">樓層 1</text>
<rect x="20" y="0.0" width="860" height="140" rx="4" fill="#0d0d1a" stroke="#4a2a6a" stroke-width="1"/>
<rect x="0.0" y="0.0" width="900.0" height="640.0" rx="0.0" fill="#1a1a2e" stroke="" stroke-width=""/>
<text x="450.0" y="320.0" text-anchor="middle" fill="#aaa" font-size="9">A級英雄保護點</text>
<rect x="20.0" y="0.0" width="860.0" height="140.0" rx="4.0" fill="#0d0d1a" stroke="#4a2a6a" stroke-width="1"/>
<text x="450.0" y="70.0" text-anchor="middle" fill="#aaa" font-size="9">怪人協會地下基地——探索地圖</text>
<rect x="0.0" y="0.0" width="900.0" height="640.0" rx="0.0" fill="#1a1a2e" stroke="" stroke-width=""/>
<text x="450.0" y="320.0" text-anchor="middle" fill="#aaa" font-size="9">A級英雄保護點</text>
<rect x="20.0" y="60.0" width="860.0" height="140.0" rx="4.0" fill="#0d0d1a" stroke="#4a2a6a" stroke-width="1"/>
<text x="450.0" y="130.0" text-anchor="middle" fill="#aaa" font-size="9">(搜索點)</text>
<rect x="35.0" y="72.0" width="140.0" height="50.0" rx="3.0" fill="#1a2a2a" stroke="#10B981" stroke-width=""/>
<text x="105.0" y="97.0" text-anchor="middle" fill="#aaa" font-size="9">入口大廳</text>
<rect x="200.0" y="72.0" width="120.0" height="50.0" rx="3.0" fill="#301520" stroke="#EF4444" stroke-width=""/>
<text x="260.0" y="97.0" text-anchor="middle" fill="#aaa" font-size="9">虎級守衛×5</text>
<rect x="350.0" y="72.0" width="100.0" height="50.0" rx="3.0" fill="#1a1030" stroke="#6D28D9" stroke-width=""/>
<text x="400.0" y="97.0" text-anchor="middle" fill="#aaa" font-size="9">物資儲藏室</text>
<rect x="480.0" y="72.0" width="80.0" height="50.0" rx="3.0" fill="#162040" stroke="#F59E0B" stroke-width=""/>
<text x="520.0" y="97.0" text-anchor="middle" fill="#aaa" font-size="9">電梯</text>
<rect x="590.0" y="72.0" width="140.0" height="50.0" rx="3.0" fill="#301520" stroke="#EF4444" stroke-width=""/>
<text x="660.0" y="97.0" text-anchor="middle" fill="#aaa" font-size="9">監控室</text>
<rect x="760.0" y="72.0" width="100.0" height="50.0" rx="3.0" fill="#1a1030" stroke="#6D28D9" stroke-width=""/>
<text x="810.0" y="97.0" text-anchor="middle" fill="#aaa" font-size="9">通風管道</text>
<text x="20" y="225.0" fill="#8B5CF6" font-size="13" font-weight="bold">樓層 2</text>
<rect x="20" y="230.0" width="860" height="140" rx="4" fill="#0d0d1a" stroke="#4a2a6a" stroke-width="1"/>
<rect x="20.0" y="230.0" width="860.0" height="140.0" rx="4.0" fill="#0d0d1a" stroke="#4a2a6a" stroke-width="1"/>
<text x="450.0" y="300.0" text-anchor="middle" fill="#aaa" font-size="9">A級英雄保護點</text>
<rect x="20.0" y="230.0" width="860.0" height="170.0" rx="4.0" fill="#0d0d1a" stroke="#4a2a6a" stroke-width="1"/>
<text x="450.0" y="315.0" text-anchor="middle" fill="#aaa" font-size="9">A級英雄保護點</text>
<rect x="35.0" y="244.0" width="130.0" height="50.0" rx="3.0" fill="#1a1030" stroke="#6D28D9" stroke-width=""/>
<text x="100.0" y="269.0" text-anchor="middle" fill="#aaa" font-size="9">幹部會議室</text>
<rect x="190.0" y="244.0" width="130.0" height="50.0" rx="3.0" fill="#301520" stroke="#FD0304" stroke-width=""/>
<text x="255.0" y="269.0" text-anchor="middle" fill="#aaa" font-size="9">黑色精子區域</text>
<rect x="345.0" y="244.0" width="130.0" height="50.0" rx="3.0" fill="#301520" stroke="#FD0304" stroke-width=""/>
<text x="410.0" y="269.0" text-anchor="middle" fill="#aaa" font-size="9">流浪帝區域</text>
<rect x="500.0" y="244.0" width="80.0" height="50.0" rx="3.0" fill="#162040" stroke="#F59E0B" stroke-width=""/>
<text x="540.0" y="269.0" text-anchor="middle" fill="#aaa" font-size="9">電梯</text>
<rect x="610.0" y="244.0" width="130.0" height="50.0" rx="3.0" fill="#301520" stroke="#FD0304" stroke-width=""/>
<text x="675.0" y="269.0" text-anchor="middle" fill="#aaa" font-size="9">蜈蚣長老區域</text>
<rect x="768.0" y="244.0" width="95.0" height="50.0" rx="3.0" fill="#1a3020" stroke="#00FF88" stroke-width=""/>
<text x="815.5" y="269.0" text-anchor="middle" fill="#aaa" font-size="9">安全室</text>
<rect x="35.0" y="310.0" width="130.0" height="40.0" rx="3.0" fill="#1a3020" stroke="#10B981" stroke-width=""/>
<text x="100.0" y="330.0" text-anchor="middle" fill="#aaa" font-size="9">邦古/傑諾斯位置</text>
<rect x="190.0" y="310.0" width="130.0" height="40.0" rx="3.0" fill="#1a3020" stroke="#10B981" stroke-width=""/>
<text x="255.0" y="330.0" text-anchor="middle" fill="#aaa" font-size="9">KING位置</text>
<rect x="345.0" y="310.0" width="130.0" height="40.0" rx="3.0" fill="#1a2020" stroke="#888" stroke-width=""/>
<text x="410.0" y="330.0" text-anchor="middle" fill="#aaa" font-size="9">A級英雄保護點</text>
<text x="20" y="425.0" fill="#8B5CF6" font-size="13" font-weight="bold">樓層 3</text>
<rect x="20" y="430.0" width="860" height="140" rx="4" fill="#0d0d1a" stroke="#4a2a6a" stroke-width="1"/>
<rect x="20.0" y="430.0" width="860.0" height="140.0" rx="4.0" fill="#0d0d1a" stroke="#4a2a6a" stroke-width="1"/>
<rect x="20.0" y="430.0" width="860.0" height="110.0" rx="4.0" fill="#0d0d1a" stroke="#4a2a6a" stroke-width="1"/>
<rect x="35.0" y="442.0" width="200.0" height="50.0" rx="3.0" fill="#2E1A3E" stroke="#FD0304" stroke-width="2"/>
<text x="135.0" y="467.0" text-anchor="middle" fill="#aaa" font-size="9">怪人王·大蛇 王座</text>
<rect x="280.0" y="442.0" width="150.0" height="50.0" rx="3.0" fill="#301520" stroke="#EF4444" stroke-width=""/>
<text x="355.0" y="467.0" text-anchor="middle" fill="#aaa" font-size="9">賽克斯觀測室</text>
<rect x="470.0" y="442.0" width="120.0" height="50.0" rx="3.0" fill="#1a3020" stroke="#10B981" stroke-width=""/>
<text x="530.0" y="467.0" text-anchor="middle" fill="#aaa" font-size="9">英雄突破點</text>
<rect x="630.0" y="442.0" width="120.0" height="50.0" rx="3.0" fill="#1a2020" stroke="#FFAA00" stroke-width=""/>
<text x="690.0" y="467.0" text-anchor="middle" fill="#aaa" font-size="9">埼玉到達點</text>
<rect x="760.0" y="442.0" width="100.0" height="50.0" rx="4.0" fill="#111" stroke="#FF4444" stroke-width=""/>
<text x="810.0" y="467.0" text-anchor="middle" fill="#aaa" font-size="9">埼玉計數器</text>
<text x="20" y="580.0" fill="#8B5CF6" font-size="13" font-weight="bold">樓層 4</text>
<rect x="20" y="585.0" width="860" height="140" rx="4" fill="#0d0d1a" stroke="#4a2a6a" stroke-width="1"/>
<rect x="20.0" y="585.0" width="860.0" height="40.0" rx="4.0" fill="#111" stroke="#333" stroke-width=""/>
<rect x="20" y="585" width="860" height="40" rx="4" fill="#111" stroke="#333"/>
<text x="35" y="610" fill="#aaa" font-size="9">OPM_EM-01 | 探索地圖 | B1~B3 怪人協會地下基地</text>
<text x="205" y="610" fill="#aaa" font-size="9">OPM_EM-01 | 探索地圖</text>
<text x="20" y="630" fill="#666" font-size="9">OPM_EM-01 | 探索地圖 </text>
</svg>