<svg xmlns="http://www.w3.org/2000/svg" viewBox="0 0 920 680" font-family="Microsoft JhengHei, sans-serif">
<rect width="920" height="680" fill="#1a1a2e"/>
<text x="460.0" y="25" text-anchor="middle" fill="#C084FC" font-size="16" font-weight="bold">CCG 20District Branch — Explore the map</text>
<text x="20" y="-5.0" fill="#8B5CF6" font-size="13" font-weight="bold">3 Floor（3F）—— Command level</text>
<rect x="20" y="0.0" width="880" height="140" rx="4" fill="#0d0d1a" stroke="#4a2a6a" stroke-width="1"/>
<rect x="0.0" y="0.0" width="920.0" height="680.0" rx="0.0" fill="#1a1a2e" stroke="" stroke-width=""/>
<text x="460.0" y="340.0" text-anchor="middle" fill="#aaa" font-size="9">Staircase</text>
<rect x="20.0" y="65.0" width="880.0" height="120.0" rx="4.0" fill="#0d0d1a" stroke="#4a2a6a" stroke-width="1"/>
<text x="460.0" y="125.0" text-anchor="middle" fill="#aaa" font-size="9">Staircase</text>
<rect x="35.0" y="77.0" width="100.0" height="50.0" rx="3.0" fill="#1a2a3e" stroke="#3B82F6" stroke-width=""/>
<text x="85.0" y="102.0" text-anchor="middle" fill="#aaa" font-size="9">Communication Room</text>
<rect x="155.0" y="77.0" width="120.0" height="50.0" rx="3.0" fill="#1a2a3e" stroke="#6D28D9" stroke-width=""/>
<text x="215.0" y="102.0" text-anchor="middle" fill="#aaa" font-size="9">Briefing Room</text>
<rect x="295.0" y="77.0" width="100.0" height="50.0" rx="3.0" fill="#1a2a3e" stroke="#555" stroke-width=""/>
<text x="345.0" y="102.0" text-anchor="middle" fill="#aaa" font-size="9">Branch Director's Office</text>
<rect x="420.0" y="77.0" width="70.0" height="95.0" rx="3.0" fill="#162040" stroke="#F59E0B" stroke-width=""/>
<text x="455.0" y="124.5" text-anchor="middle" fill="#aaa" font-size="9">Staircase</text>
<rect x="515.0" y="77.0" width="90.0" height="50.0" rx="3.0" fill="#1a2a3e" stroke="#555" stroke-width=""/>
<text x="560.0" y="102.0" text-anchor="middle" fill="#aaa" font-size="9">Searcher's Office</text>
<rect x="625.0" y="77.0" width="110.0" height="50.0" rx="3.0" fill="#1a1030" stroke="#6D28D9" stroke-width=""/>
<text x="680.0" y="102.0" text-anchor="middle" fill="#aaa" font-size="9">Archives</text>
<rect x="760.0" y="77.0" width="120.0" height="50.0" rx="3.0" fill="#1a3020" stroke="#10B981" stroke-width=""/>
<text x="820.0" y="102.0" text-anchor="middle" fill="#aaa" font-size="9">Rooftop helipad</text>
<text x="20" y="210.0" fill="#8B5CF6" font-size="13" font-weight="bold">2 Floor（2F）—— Operations Layer</text>
<rect x="20" y="215.0" width="880" height="140" rx="4" fill="#0d0d1a" stroke="#4a2a6a" stroke-width="1"/>
<rect x="20.0" y="215.0" width="880.0" height="120.0" rx="4.0" fill="#0d0d1a" stroke="#4a2a6a" stroke-width="1"/>
<text x="460.0" y="275.0" text-anchor="middle" fill="#aaa" font-size="9">Staircase</text>
<rect x="35.0" y="227.0" width="120.0" height="50.0" rx="3.0" fill="#2a2010" stroke="#F59E0B" stroke-width=""/>
<text x="95.0" y="252.0" text-anchor="middle" fill="#aaa" font-size="9">Kuinke Armory</text>
<rect x="175.0" y="227.0" width="100.0" height="50.0" rx="3.0" fill="#1a2a3e" stroke="#555" stroke-width=""/>
<text x="225.0" y="252.0" text-anchor="middle" fill="#aaa" font-size="9">Operations Planning Room</text>
<rect x="295.0" y="227.0" width="90.0" height="50.0" rx="3.0" fill="#1a2a3e" stroke="#555" stroke-width=""/>
<text x="340.0" y="252.0" text-anchor="middle" fill="#aaa" font-size="9">Searcher's quarters</text>
<rect x="420.0" y="227.0" width="70.0" height="108.0" rx="3.0" fill="#162040" stroke="#F59E0B" stroke-width=""/>
<text x="455.0" y="281.0" text-anchor="middle" fill="#aaa" font-size="9">Staircase</text>
<rect x="515.0" y="227.0" width="100.0" height="50.0" rx="3.0" fill="#1a1030" stroke="#6D28D9" stroke-width=""/>
<text x="565.0" y="252.0" text-anchor="middle" fill="#aaa" font-size="9">Intelligence Analysis Room</text>
<rect x="640.0" y="227.0" width="120.0" height="50.0" rx="3.0" fill="#1a2a3e" stroke="#555" stroke-width=""/>
<text x="700.0" y="252.0" text-anchor="middle" fill="#aaa" font-size="9">Infirmary</text>
<rect x="780.0" y="227.0" width="100.0" height="50.0" rx="3.0" fill="#1a2a3e" stroke="#555" stroke-width=""/>
<text x="830.0" y="252.0" text-anchor="middle" fill="#aaa" font-size="9">Training Ground</text>
<text x="20" y="360.0" fill="#8B5CF6" font-size="13" font-weight="bold">1 Floor（1F）—— Entrance Layer</text>
<rect x="20" y="365.0" width="880" height="140" rx="4" fill="#0d0d1a" stroke="#4a2a6a" stroke-width="1"/>
<rect x="20.0" y="365.0" width="880.0" height="120.0" rx="4.0" fill="#0d0d1a" stroke="#4a2a6a" stroke-width="1"/>
<text x="460.0" y="425.0" text-anchor="middle" fill="#aaa" font-size="9">Staircase</text>
<rect x="35.0" y="377.0" width="140.0" height="55.0" rx="3.0" fill="#2a3a2a" stroke="#10B981" stroke-width=""/>
<text x="105.0" y="404.5" text-anchor="middle" fill="#aaa" font-size="9">Main entrance hall</text>
<rect x="195.0" y="377.0" width="90.0" height="55.0" rx="3.0" fill="#1a2a3e" stroke="#555" stroke-width=""/>
<text x="240.0" y="404.5" text-anchor="middle" fill="#aaa" font-size="9">Reception desk</text>
<rect x="305.0" y="377.0" width="90.0" height="55.0" rx="3.0" fill="#1a2a3e" stroke="#555" stroke-width=""/>
<text x="350.0" y="404.5" text-anchor="middle" fill="#aaa" font-size="9">Guard duty room</text>
<rect x="420.0" y="377.0" width="70.0" height="108.0" rx="3.0" fill="#162040" stroke="#F59E0B" stroke-width=""/>
<text x="455.0" y="431.0" text-anchor="middle" fill="#aaa" font-size="9">Staircase</text>
<rect x="515.0" y="377.0" width="100.0" height="55.0" rx="3.0" fill="#301520" stroke="#EF4444" stroke-width=""/>
<text x="565.0" y="404.5" text-anchor="middle" fill="#aaa" font-size="9">Underground Detention Center Entrance</text>
<rect x="640.0" y="377.0" width="100.0" height="55.0" rx="3.0" fill="#1a2a3e" stroke="#3B82F6" stroke-width=""/>
<text x="690.0" y="404.5" text-anchor="middle" fill="#aaa" font-size="9">Underpass entrance</text>
<rect x="760.0" y="377.0" width="120.0" height="55.0" rx="3.0" fill="#1a2a3e" stroke="#555" stroke-width=""/>
<text x="820.0" y="404.5" text-anchor="middle" fill="#aaa" font-size="9">Parking Area/Vehicle Dispatch</text>
<text x="20" y="515.0" fill="#8B5CF6" font-size="13" font-weight="bold">TG_EM-01 | Explore the map | CCG 20District Branch 1～3F+accessory</text>
<rect x="20" y="520.0" width="880" height="140" rx="4" fill="#0d0d1a" stroke="#4a2a6a" stroke-width="1"/>
<rect x="20.0" y="520.0" width="880.0" height="100.0" rx="4.0" fill="#0d0d1a" stroke="#4a2a6a" stroke-width="1"/>
<text x="460.0" y="570.0" text-anchor="middle" fill="#aaa" font-size="9">Waste Industrial Zone（E — North-West 1.2km）</text>
<rect x="35.0" y="535.0" width="160.0" height="40.0" rx="3.0" fill="#1a2a2a" stroke="#555" stroke-width=""/>
<text x="115.0" y="555.0" text-anchor="middle" fill="#aaa" font-size="9">Commercial Street（B — South Bound 500m）</text>
<rect x="220.0" y="535.0" width="160.0" height="40.0" rx="3.0" fill="#1a2a1a" stroke="#10B981" stroke-width=""/>
<text x="300.0" y="555.0" text-anchor="middle" fill="#aaa" font-size="9">Residential/Antique cafes（C — Eastbound 800m）</text>
<rect x="405.0" y="535.0" width="160.0" height="40.0" rx="3.0" fill="#301520" stroke="#EF4444" stroke-width=""/>
<text x="485.0" y="555.0" text-anchor="middle" fill="#aaa" font-size="9">Waste Industrial Zone（E — North-West 1.2km）</text>
<rect x="590.0" y="535.0" width="140.0" height="40.0" rx="3.0" fill="#162040" stroke="#C084FC" stroke-width=""/>
<text x="660.0" y="555.0" text-anchor="middle" fill="#aaa" font-size="9">Lower Ground Floor→Sanitary sewer（D）</text>
<text x="20" y="635.0" fill="#8B5CF6" font-size="13" font-weight="bold">Stairs interconnect | Underground Detention Facility1F(S-03) | tunnel(1F)Connect sewer(D)→Abandoned factory(E)</text>
<rect x="20" y="640.0" width="880" height="140" rx="4" fill="#0d0d1a" stroke="#4a2a6a" stroke-width="1"/>
<rect x="35.0" y="640.0" width="850.0" height="30.0" rx="4.0" fill="#111" stroke="#333" stroke-width=""/>
<text x="460.0" y="655.0" text-anchor="middle" fill="#aaa" font-size="9">TG_EM-01 | Explore the map | CCG 20District Branch 1～3F+accessory</text>
<rect x="130.0" y="650.0" width="14.0" height="10.0" rx="0.0" fill="#301520" stroke="#EF4444" stroke-width=""/>
<text x="137.0" y="655.0" text-anchor="middle" fill="#aaa" font-size="9">dangerous territory</text>
<rect x="230.0" y="650.0" width="14.0" height="10.0" rx="0.0" fill="#162040" stroke="#F59E0B" stroke-width=""/>
<text x="237.0" y="655.0" text-anchor="middle" fill="#aaa" font-size="9">Vertical channel</text>
<rect x="330.0" y="650.0" width="14.0" height="10.0" rx="0.0" fill="#1a3020" stroke="#10B981" stroke-width=""/>
<text x="337.0" y="655.0" text-anchor="middle" fill="#aaa" font-size="9">Safe Zone/Moderates</text>
<rect x="20" y="625" width="880" height="40" rx="4" fill="#111" stroke="#333"/>
<text x="35" y="650" fill="#aaa" font-size="9">Starting point</text>
<text x="205" y="650" fill="#aaa" font-size="9">dangerous territory</text>
<text x="375" y="650" fill="#aaa" font-size="9">TG_EM-01 | Explore the map | CCG 20District Branch 1～3F+accessory</text>
<text x="20" y="670" fill="#666" font-size="9">TG_EM-01 | Explore the map | Stairs interconnect | Underground Detention Facility1F(S-03) | tunnel(1F)Connect sewer(D)→Abandoned factory(E)</text>
</svg>