<svg xmlns="http://www.w3.org/2000/svg" viewBox="0 0 900 640" font-family="Microsoft JhengHei, sans-serif">
<defs>
  <marker id="arrow" markerWidth="10" markerHeight="7" refX="10" refY="3.5" orient="auto"><polygon points="0 0, 10 3.5, 0 7" fill="#FF4444"/></marker>
</defs>
<rect width="900" height="640" fill="#1a1a2e"/>
<pattern id="wmgrid" width="40" height="40" patternUnits="userSpaceOnUse"><path d="M 40 0 L 0 0 0 40" fill="none" stroke="#2a2a4e" stroke-width="0.5"/></pattern>
<rect width="900" height="640" fill="url(#wmgrid)"/>
<line x1="100.0" y1="350.0" x2="800.0" y2="350.0" stroke="#555" stroke-width="5"/>
<line x1="450.0" y1="80.0" x2="450.0" y2="580.0" stroke="#555" stroke-width="4"/>
<line x1="200.0" y1="200.0" x2="700.0" y2="200.0" stroke="#444" stroke-width="3"/>
<line x1="200.0" y1="500.0" x2="700.0" y2="500.0" stroke="#444" stroke-width="3"/>
<line x1="700.0" y1="80.0" x2="700.0" y2="580.0" stroke="#444" stroke-width="2"/>
<rect x="60.0" y="50.0" width="780.0" height="530.0" rx="5" fill="none" stroke="#4a2a6a" stroke-width="2"/>
<rect x="370.0" y="130.0" width="160.0" height="100.0" rx="5" fill="#1a2a3e" stroke="#8B5CF6" stroke-width="2"/>
<text x="450.0" y="180.0" text-anchor="middle" fill="#C084FC" font-size="14" font-weight="bold">（起始點 A — T+0）</text>
<rect x="390.0" y="193.0" width="55.0" height="15.0" rx="5" fill="#2a3a4e" stroke="#6D28D9" stroke-width="2"/>
<text x="417.5" y="200.5" text-anchor="middle" fill="#C084FC" font-size="14" font-weight="bold">武器庫</text>
<rect x="455.0" y="193.0" width="55.0" height="15.0" rx="5" fill="#2a3a4e" stroke="#6D28D9" stroke-width="2"/>
<text x="482.5" y="200.5" text-anchor="middle" fill="#C084FC" font-size="14" font-weight="bold">拘留所</text>
<rect x="230.0" y="270.0" width="200.0" height="140.0" rx="5" fill="#1a2a2a" stroke="#555" stroke-width="2"/>
<text x="330.0" y="340.0" text-anchor="middle" fill="#C084FC" font-size="14" font-weight="bold">書店</text>
<rect x="245.0" y="325.0" width="55.0" height="20.0" rx="5" fill="#2a1a2e" stroke="#6D28D9" stroke-width="2"/>
<text x="272.5" y="335.0" text-anchor="middle" fill="#C084FC" font-size="14" font-weight="bold">居酒屋</text>
<rect x="310.0" y="325.0" width="55.0" height="20.0" rx="5" fill="#2a1a2e" stroke="#6D28D9" stroke-width="2"/>
<text x="337.5" y="335.0" text-anchor="middle" fill="#C084FC" font-size="14" font-weight="bold">書店</text>
<rect x="375.0" y="325.0" width="45.0" height="20.0" rx="5" fill="#2a1a2e" stroke="#6D28D9" stroke-width="2"/>
<text x="397.5" y="335.0" text-anchor="middle" fill="#C084FC" font-size="14" font-weight="bold">便利商店</text>
<rect x="500.0" y="420.0" width="180.0" height="130.0" rx="5" fill="#1a2a1a" stroke="#10B981" stroke-width="2"/>
<text x="590.0" y="485.0" text-anchor="middle" fill="#C084FC" font-size="14" font-weight="bold">古董咖啡廳 (Anteiku)</text>
<rect x="520.0" y="478.0" width="140.0" height="35.0" rx="5" fill="#1a3020" stroke="#10B981" stroke-width="2"/>
<text x="590.0" y="495.5" text-anchor="middle" fill="#C084FC" font-size="14" font-weight="bold">古董咖啡廳 (Anteiku)</text>
<rect x="80.0" y="420.0" width="160.0" height="120.0" rx="5" fill="#301520" stroke="#EF4444" stroke-width="2"/>
<text x="160.0" y="480.0" text-anchor="middle" fill="#C084FC" font-size="14" font-weight="bold">（E — 青桐樹據點）</text>
<rect x="95.0" y="480.0" width="130.0" height="30.0" rx="5" fill="#3a1520" stroke="#EF4444" stroke-width="2"/>
<text x="160.0" y="495.0" text-anchor="middle" fill="#C084FC" font-size="14" font-weight="bold">廢棄化工廠</text>
<rect x="680.0" y="80.0" width="150.0" height="80.0" rx="5" fill="#1a2a3e" stroke="#3B82F6" stroke-width="2"/>
<text x="755.0" y="120.0" text-anchor="middle" fill="#C084FC" font-size="14" font-weight="bold">（F — T+96增援）</text>
<line x1="160.0" y1="540.0" x2="330.0" y2="410.0" stroke="#8B5CF6" stroke-width="2" stroke-dasharray="6,3" marker-end="url(#arrow)"/>
<line x1="160.0" y1="540.0" x2="450.0" y2="230.0" stroke="#8B5CF6" stroke-width="2" stroke-dasharray="6,3" marker-end="url(#arrow)"/>
<line x1="330.0" y1="410.0" x2="590.0" y2="550.0" stroke="#8B5CF6" stroke-width="2" stroke-dasharray="6,3" marker-end="url(#arrow)"/>
<line x1="680.0" y1="120.0" x2="535.0" y2="185.0" stroke="#3B82F6" stroke-width="2" stroke-dasharray="6,3" marker-end="url(#arrow)"/>
<line x1="695.0" y1="516.0" x2="735.0" y2="516.0" stroke="#EF4444" stroke-width="2" stroke-dasharray="6,3" marker-end="url(#arrow)"/>
<ellipse cx="160.0" cy="500.0" rx="90.0" ry="80.0" fill="#FF0000" opacity="0.1" stroke="#EF4444" stroke-width="1"/>
<text x="205.0" y="500.0" fill="#FF4444" font-size="9">廢棄化工廠</text>
<circle cx="450.0" cy="230.0" r="6.0" fill="#00FF88" opacity="0.6"/>
<circle cx="450.0" cy="230.0" r="6.0" fill="none" stroke="" stroke-width="2"/>
<circle cx="702.0" cy="562.0" r="5.0" fill="#00FF88" opacity="0.6"/>
<circle cx="702.0" cy="562.0" r="5.0" fill="none" stroke="" stroke-width="2"/>
<text x="702.0" y="552.0" text-anchor="middle" fill="" font-size="10" font-weight="bold">★ 起始點/安全區</text>
<rect x="730" y="20" width="150" height="128" rx="4" fill="#111" stroke="#333" stroke-width="1"/>
<text x="805" y="38" text-anchor="middle" fill="#fff" font-size="11" font-weight="bold">圖例</text>
<text x="740" y="60" fill="#aaa" font-size="9">（F — T+96增援）</text>
<text x="740" y="76" fill="#aaa" font-size="9">下水道路線</text>
<text x="740" y="92" fill="#aaa" font-size="9">危險區域</text>
<text x="740" y="108" fill="#aaa" font-size="9">起始點/安全區</text>
<text x="740" y="124" fill="#aaa" font-size="9">喰種溫和派據點</text>
<text x="740" y="140" fill="#aaa" font-size="9">CCG設施</text>
<text x="20" y="625" fill="#666" font-size="9">TG_WM-01 | 大範圍地圖 | TG_WM-01 | 大範圍地圖 | 1格 ≈ 200m</text>
</svg>