<svg xmlns="http://www.w3.org/2000/svg" viewBox="0 0 680 420" font-family="Microsoft JhengHei, sans-serif">
<defs>
  <pattern id="grid" width="15" height="15" patternUnits="userSpaceOnUse">
    <path d="M 15 0 L 0 0 0 15" fill="none" stroke="#2a2a4a" stroke-width="0.3"/>
  </pattern>
</defs>
<rect width="680" height="420" fill="#1a1a2e"/>
<rect x="20" y="20" width="640" height="380" fill="url(#grid)"/>
<rect x="20" y="20" width="640" height="380" fill="none" stroke="#4a2a6a" stroke-width="2"/>
<text x="340.0" y="12" text-anchor="middle" fill="#C084FC" font-size="14" font-weight="bold">直升機撤離點廣場</text>
<text x="25" y="412" fill="#666" font-size="9">WWZ_BM-02 | 12×10格（概念） | 1格 = 5ft | 總 60×50ft</text>
<text x="27.5" y="15" text-anchor="middle" fill="#555" font-size="7">1</text>
<text x="42.5" y="15" text-anchor="middle" fill="#555" font-size="7">2</text>
<text x="57.5" y="15" text-anchor="middle" fill="#555" font-size="7">3</text>
<text x="72.5" y="15" text-anchor="middle" fill="#555" font-size="7">4</text>
<text x="87.5" y="15" text-anchor="middle" fill="#555" font-size="7">5</text>
<text x="102.5" y="15" text-anchor="middle" fill="#555" font-size="7">6</text>
<text x="117.5" y="15" text-anchor="middle" fill="#555" font-size="7">7</text>
<text x="132.5" y="15" text-anchor="middle" fill="#555" font-size="7">8</text>
<text x="147.5" y="15" text-anchor="middle" fill="#555" font-size="7">9</text>
<text x="162.5" y="15" text-anchor="middle" fill="#555" font-size="7">10</text>
<text x="177.5" y="15" text-anchor="middle" fill="#555" font-size="7">11</text>
<text x="192.5" y="15" text-anchor="middle" fill="#555" font-size="7">12</text>
<text x="8" y="30.5" text-anchor="middle" fill="#555" font-size="7">A</text>
<text x="8" y="45.5" text-anchor="middle" fill="#555" font-size="7">B</text>
<text x="8" y="60.5" text-anchor="middle" fill="#555" font-size="7">C</text>
<text x="8" y="75.5" text-anchor="middle" fill="#555" font-size="7">D</text>
<text x="8" y="90.5" text-anchor="middle" fill="#555" font-size="7">E</text>
<text x="8" y="105.5" text-anchor="middle" fill="#555" font-size="7">F</text>
<text x="8" y="120.5" text-anchor="middle" fill="#555" font-size="7">G</text>
<text x="8" y="135.5" text-anchor="middle" fill="#555" font-size="7">H</text>
<text x="8" y="150.5" text-anchor="middle" fill="#555" font-size="7">I</text>
<text x="8" y="165.5" text-anchor="middle" fill="#555" font-size="7">J</text>
<rect x="40.0" y="40.0" width="360.0" height="5.0" rx="5" fill="#667" stroke="" stroke-width=""/>
<rect x="40.0" y="335.0" width="360.0" height="5.0" rx="5" fill="#667" stroke="" stroke-width=""/>
<rect x="40.0" y="40.0" width="5.0" height="300.0" rx="3" fill="#667" stroke="" stroke-width=""/>
<rect x="395.0" y="40.0" width="5.0" height="300.0" rx="3" fill="#667" stroke="" stroke-width=""/>
<text x="397.5" y="186.0" text-anchor="middle" fill="#aaa" font-size="8">登機!</text>
<text x="397.5" y="200.0" text-anchor="middle" fill="#666" font-size="6">(122.5, 50.0)ft</text>
<rect x="80.0" y="80.0" width="80.0" height="40.0" rx="3" fill="#2a2a30" stroke="#555" stroke-width="1.5"/>
<text x="120.0" y="96.0" text-anchor="middle" fill="#aaa" font-size="8">悍馬</text>
<text x="120.0" y="110.0" text-anchor="middle" fill="#666" font-size="6">(27.5, 22.5)ft</text>
<rect x="300.0" y="200.0" width="100.0" height="50.0" rx="3" fill="#2a2a20" stroke="#10B981" stroke-width="1.5"/>
<text x="350.0" y="221.0" text-anchor="middle" fill="#aaa" font-size="8">CH-53</text>
<text x="350.0" y="235.0" text-anchor="middle" fill="#666" font-size="6">(102.5, 62.5)ft</text>
<rect x="500.0" y="80.0" width="80.0" height="40.0" rx="3" fill="#2a2a30" stroke="#555" stroke-width="1.5"/>
<text x="540.0" y="96.0" text-anchor="middle" fill="#aaa" font-size="8">巴士</text>
<text x="540.0" y="110.0" text-anchor="middle" fill="#666" font-size="6">(167.5, 22.5)ft</text>
<rect x="280.0" y="300.0" width="50.0" height="15.0" rx="5" fill="#FFAA00" stroke="#886600" stroke-width="1.5"/>
<text x="305.0" y="303.5" text-anchor="middle" fill="#aaa" font-size="8">防線</text>
<text x="305.0" y="317.5" text-anchor="middle" fill="#666" font-size="6">(87.5, 87.5)ft</text>
<rect x="450.0" y="300.0" width="50.0" height="15.0" rx="5" fill="#FFAA00" stroke="#886600" stroke-width="1.5"/>
<text x="475.0" y="303.5" text-anchor="middle" fill="#aaa" font-size="8">防線</text>
<text x="475.0" y="317.5" text-anchor="middle" fill="#666" font-size="6">(142.5, 87.5)ft</text>
<rect x="300.0" y="195.0" width="100.0" height="5.0" rx="5" fill="#00FF88" stroke="#00FF88" stroke-width="1.5"/>
<text x="350.0" y="193.5" text-anchor="middle" fill="#aaa" font-size="8">登機!</text>
<text x="350.0" y="207.5" text-anchor="middle" fill="#666" font-size="6">(102.5, 52.5)ft</text>
<polygon points="490.0,372.0 510.0,380.0 490.0,388.0" fill="#00FF88"/>
<text x="505.0" y="394.0" fill="#00FF88" font-size="8">玩家入口</text>
<rect x="310.0" y="10.0" width="60" height="20" rx="3" fill="#00FF88" opacity="0.2" stroke="#00FF88"/>
<text x="340.0" y="24.0" text-anchor="middle" fill="#00FF88" font-size="8">直升機撤離點廣場</text>
</svg>