<svg xmlns="http://www.w3.org/2000/svg" viewBox="0 0 800 600" font-family="Microsoft JhengHei, sans-serif">
<defs>
  <marker id="arrow" markerWidth="10" markerHeight="7" refX="10" refY="3.5" orient="auto"><polygon points="0 0, 10 3.5, 0 7" fill="#FF4444"/></marker>
</defs>
<rect width="800" height="600" fill="#1a1a2e"/>
<pattern id="wmgrid" width="40" height="40" patternUnits="userSpaceOnUse"><path d="M 40 0 L 0 0 0 40" fill="none" stroke="#2a2a4e" stroke-width="0.5"/></pattern>
<rect width="800" height="600" fill="url(#wmgrid)"/>
<line x1="100.0" y1="350.0" x2="700.0" y2="350.0" stroke="#555" stroke-width="6"/>
<line x1="400.0" y1="80.0" x2="400.0" y2="520.0" stroke="#555" stroke-width="6"/>
<line x1="200.0" y1="200.0" x2="600.0" y2="200.0" stroke="#555" stroke-width="3"/>
<rect x="160.0" y="420.0" width="80.0" height="60.0" rx="5" fill="#2e1a3e" stroke="#8B5CF6" stroke-width="2"/>
<text x="200.0" y="450.0" text-anchor="middle" fill="#C084FC" font-size="14" font-weight="bold">觀測室</text>
<rect x="180.0" y="120.0" width="100.0" height="60.0" rx="5" fill="#2e1a3e" stroke="#8B5CF6" stroke-width="2"/>
<text x="230.0" y="150.0" text-anchor="middle" fill="#C084FC" font-size="14" font-weight="bold">保安中心</text>
<rect x="500.0" y="420.0" width="100.0" height="60.0" rx="5" fill="#1a2a30" stroke="#3B82F6" stroke-width="2"/>
<text x="550.0" y="450.0" text-anchor="middle" fill="#C084FC" font-size="14" font-weight="bold">材料實驗室</text>
<rect x="320.0" y="350.0" width="80.0" height="50.0" rx="5" fill="#301520" stroke="#EF4444" stroke-width="2"/>
<text x="360.0" y="375.0" text-anchor="middle" fill="#C084FC" font-size="14" font-weight="bold">異常物質</text>
<line x1="240.0" y1="450.0" x2="400.0" y2="410.0" stroke="#FF4444" stroke-width="2" stroke-dasharray="6,3" marker-end="url(#arrow)"/>
<line x1="400.0" y1="410.0" x2="600.0" y2="100.0" stroke="#FF4444" stroke-width="2" stroke-dasharray="6,3" marker-end="url(#arrow)"/>
<line x1="635.0" y1="515.0" x2="665.0" y2="515.0" stroke="#FF4444" stroke-width="2" stroke-dasharray="6,3" marker-end="url(#arrow)"/>
<ellipse cx="350.0" cy="300.0" rx="80.0" ry="50.0" fill="#FF0000" opacity="0.1" stroke="#FF4444" stroke-width="1"/>
<text x="390.0" y="300.0" fill="#FF4444" font-size="9">異形活躍區</text>
<ellipse cx="600.0" cy="350.0" rx="60.0" ry="40.0" fill="#FF0000" opacity="0.1" stroke="#FF4444" stroke-width="1"/>
<text x="630.0" y="350.0" fill="#FF4444" font-size="9">軍事封鎖線</text>
<ellipse cx="150.0" cy="200.0" rx="50.0" ry="35.0" fill="#FF0000" opacity="0.1" stroke="#FF4444" stroke-width="1"/>
<text x="175.0" y="200.0" fill="#FF4444" font-size="9">坍塌區域</text>
<circle cx="200.0" cy="475.0" r="4.0" fill="#00FF88" opacity="0.6"/>
<circle cx="200.0" cy="475.0" r="4.0" fill="none" stroke="" stroke-width="2"/>
<text x="200.0" y="466.0" text-anchor="middle" fill="" font-size="10" font-weight="bold">★ (起始點)</text>
<circle cx="600.0" cy="100.0" r="18.0" fill="none" stroke="#00FF88" stroke-width="2" stroke-dasharray="4,2"/>
<text x="600.0" y="77.0" text-anchor="middle" fill="#00FF88" font-size="10" font-weight="bold">★ ★ 撤離點</text>
<circle cx="600.0" cy="100.0" r="7.0" fill="#00FF88" opacity="0.6"/>
<circle cx="600.0" cy="100.0" r="7.0" fill="none" stroke="" stroke-width="2"/>
<text x="600.0" y="88.0" text-anchor="middle" fill="" font-size="10" font-weight="bold">★ ★ 撤離點</text>
<circle cx="400.0" cy="180.0" r="20.0" fill="#FFAA00" opacity="0.6"/>
<circle cx="400.0" cy="180.0" r="20.0" fill="none" stroke="#FFAA00" stroke-width="2"/>
<text x="400.0" y="155.0" text-anchor="middle" fill="#FFAA00" font-size="10" font-weight="bold">★ T+18 核彈引爆</text>
<circle cx="642.0" cy="558.0" r="5.0" fill="#00FF88" opacity="0.6"/>
<circle cx="642.0" cy="558.0" r="5.0" fill="none" stroke="" stroke-width="2"/>
<text x="642.0" y="548.0" text-anchor="middle" fill="" font-size="10" font-weight="bold">★ 撤離點</text>
<circle cx="642.0" cy="575.0" r="4.0" fill="#00FF88" opacity="0.6"/>
<circle cx="642.0" cy="575.0" r="4.0" fill="none" stroke="" stroke-width="2"/>
<text x="642.0" y="566.0" text-anchor="middle" fill="" font-size="10" font-weight="bold">★ 起始點</text>
<rect x="630" y="20" width="150" height="128" rx="4" fill="#111" stroke="#333" stroke-width="1"/>
<text x="705" y="38" text-anchor="middle" fill="#fff" font-size="11" font-weight="bold">圖例</text>
<text x="640" y="60" fill="#aaa" font-size="9">Lambda實驗室</text>
<text x="640" y="76" fill="#aaa" font-size="9">軍事封鎖線</text>
<text x="640" y="92" fill="#aaa" font-size="9">撤離路線</text>
<text x="640" y="108" fill="#aaa" font-size="9">危險區域</text>
<text x="640" y="124" fill="#aaa" font-size="9">撤離點</text>
<text x="640" y="140" fill="#aaa" font-size="9">起始點</text>
<text x="20" y="585" fill="#666" font-size="9">HL_WM-01 | 大範圍地圖 | HL_WM-01 | 大範圍地圖 | 1格 ≈ 5m</text>
</svg>