<svg xmlns="http://www.w3.org/2000/svg" viewBox="0 0 800 600" font-family="Microsoft JhengHei, sans-serif">
<defs>
  <pattern id="grid" width="15" height="15" patternUnits="userSpaceOnUse">
    <path d="M 15 0 L 0 0 0 15" fill="none" stroke="#2a2a4a" stroke-width="0.3"/>
  </pattern>
</defs>
<rect width="800" height="600" fill="#1a1a2e"/>
<rect x="20" y="20" width="760" height="560" fill="url(#grid)"/>
<rect x="20" y="20" width="760" height="560" fill="none" stroke="#4a2a6a" stroke-width="2"/>
<text x="400.0" y="12" text-anchor="middle" fill="#C084FC" font-size="14" font-weight="bold">STRAHD_BM-02 戰鬥地圖</text>
<text x="25" y="592" fill="#666" font-size="9">STRAHD_BM-02 | 10×10格（概念） | 1格 = 5ft | 總 50×50ft</text>
<text x="27.5" y="15" text-anchor="middle" fill="#555" font-size="7">1</text>
<text x="42.5" y="15" text-anchor="middle" fill="#555" font-size="7">2</text>
<text x="57.5" y="15" text-anchor="middle" fill="#555" font-size="7">3</text>
<text x="72.5" y="15" text-anchor="middle" fill="#555" font-size="7">4</text>
<text x="87.5" y="15" text-anchor="middle" fill="#555" font-size="7">5</text>
<text x="102.5" y="15" text-anchor="middle" fill="#555" font-size="7">6</text>
<text x="117.5" y="15" text-anchor="middle" fill="#555" font-size="7">7</text>
<text x="132.5" y="15" text-anchor="middle" fill="#555" font-size="7">8</text>
<text x="147.5" y="15" text-anchor="middle" fill="#555" font-size="7">9</text>
<text x="162.5" y="15" text-anchor="middle" fill="#555" font-size="7">10</text>
<text x="8" y="30.5" text-anchor="middle" fill="#555" font-size="7">A</text>
<text x="8" y="45.5" text-anchor="middle" fill="#555" font-size="7">B</text>
<text x="8" y="60.5" text-anchor="middle" fill="#555" font-size="7">C</text>
<text x="8" y="75.5" text-anchor="middle" fill="#555" font-size="7">D</text>
<text x="8" y="90.5" text-anchor="middle" fill="#555" font-size="7">E</text>
<text x="8" y="105.5" text-anchor="middle" fill="#555" font-size="7">F</text>
<text x="8" y="120.5" text-anchor="middle" fill="#555" font-size="7">G</text>
<text x="8" y="135.5" text-anchor="middle" fill="#555" font-size="7">H</text>
<text x="8" y="150.5" text-anchor="middle" fill="#555" font-size="7">I</text>
<text x="8" y="165.5" text-anchor="middle" fill="#555" font-size="7">J</text>
<rect x="30.0" y="30.0" width="740.0" height="540.0" rx="3" fill="none" stroke="#4a4a7e" stroke-width="2"/>
<rect x="40.0" y="400.0" width="120.0" height="160.0" rx="3" fill="#00FF88" stroke="#00FF88" stroke-width="1.5"/>
<text x="100.0" y="476.0" text-anchor="middle" fill="#aaa" font-size="8">玩家起始區</text>
<text x="100.0" y="490.0" text-anchor="middle" fill="#666" font-size="6">(25.0, 152.5)ft</text>
<rect x="600.0" y="40.0" width="160.0" height="120.0" rx="3" fill="#FF4444" stroke="#FF4444" stroke-width="1.5"/>
<text x="680.0" y="96.0" text-anchor="middle" fill="#aaa" font-size="8">敵方出沒區</text>
<text x="680.0" y="110.0" text-anchor="middle" fill="#666" font-size="6">(222.5, 25.0)ft</text>
<rect x="300.0" y="100.0" width="200.0" height="40.0" rx="5" fill="#3a2a4e" stroke="#6a4a8e" stroke-width="1"/>
<text x="400.0" y="116.0" text-anchor="middle" fill="#aaa" font-size="8">宴會長桌</text>
<text x="400.0" y="130.0" text-anchor="middle" fill="#666" font-size="6">(127.5, 32.5)ft</text>
<rect x="150.0" y="250.0" width="80.0" height="80.0" rx="3" fill="#3a2a4e" stroke="#6a4a8e" stroke-width="1"/>
<text x="190.0" y="286.0" text-anchor="middle" fill="#aaa" font-size="8">石柱</text>
<text x="190.0" y="300.0" text-anchor="middle" fill="#666" font-size="6">(57.5, 87.5)ft</text>
<rect x="500.0" y="250.0" width="80.0" height="80.0" rx="3" fill="#3a2a4e" stroke="#6a4a8e" stroke-width="1"/>
<text x="540.0" y="286.0" text-anchor="middle" fill="#aaa" font-size="8">石柱</text>
<text x="540.0" y="300.0" text-anchor="middle" fill="#666" font-size="6">(172.5, 87.5)ft</text>
<rect x="350.0" y="400.0" width="100.0" height="60.0" rx="3" fill="#3a2a4e" stroke="#6a4a8e" stroke-width="1"/>
<text x="400.0" y="426.0" text-anchor="middle" fill="#aaa" font-size="8">王座</text>
<text x="400.0" y="440.0" text-anchor="middle" fill="#666" font-size="6">(127.5, 135.0)ft</text>
</svg>