<svg xmlns="http://www.w3.org/2000/svg" viewBox="0 0 900 640" font-family="Microsoft JhengHei, sans-serif">
<rect width="900" height="640" fill="#1a1a2e"/>
<text x="450.0" y="25" text-anchor="middle" fill="#C084FC" font-size="16" font-weight="bold">貢品大樓 -- 競技場出發區</text>
<text x="20" y="-5.0" fill="#8B5CF6" font-size="13" font-weight="bold">樓層 1</text>
<rect x="20" y="0.0" width="860" height="140" rx="4" fill="#0d0d1a" stroke="#4a2a6a" stroke-width="1"/>
<rect x="0.0" y="0.0" width="900.0" height="640.0" rx="0.0" fill="#1a1a2e" stroke="" stroke-width=""/>
<text x="450.0" y="320.0" text-anchor="middle" fill="#aaa" font-size="9">D12</text>
<rect x="20.0" y="65.0" width="860.0" height="140.0" rx="4.0" fill="#0d0d1a" stroke="#4a2a6a" stroke-width="1"/>
<text x="450.0" y="135.0" text-anchor="middle" fill="#aaa" font-size="9">科技/漁業/電力貢品</text>
<rect x="35.0" y="78.0" width="180.0" height="55.0" rx="3.0" fill="#1a1030" stroke="#10B981" stroke-width="1.5"/>
<text x="125.0" y="105.5" text-anchor="middle" fill="#aaa" font-size="9">12區準備室</text>
<rect x="235.0" y="78.0" width="120.0" height="55.0" rx="3.0" fill="#1a1030" stroke="#FF4444" stroke-width="1.5"/>
<text x="295.0" y="105.5" text-anchor="middle" fill="#aaa" font-size="9">1/2區準備室</text>
<rect x="375.0" y="78.0" width="120.0" height="55.0" rx="3.0" fill="#1a1030" stroke="#555" stroke-width=""/>
<text x="435.0" y="105.5" text-anchor="middle" fill="#aaa" font-size="9">3/4/5區準備室</text>
<rect x="515.0" y="78.0" width="120.0" height="55.0" rx="3.0" fill="#1a1030" stroke="#555" stroke-width=""/>
<text x="575.0" y="105.5" text-anchor="middle" fill="#aaa" font-size="9">6/7/8區準備室</text>
<rect x="655.0" y="78.0" width="120.0" height="55.0" rx="3.0" fill="#1a1030" stroke="#555" stroke-width=""/>
<text x="715.0" y="105.5" text-anchor="middle" fill="#aaa" font-size="9">9/10/11區準備室</text>
<rect x="785.0" y="78.0" width="80.0" height="55.0" rx="3.0" fill="#162040" stroke="#F59E0B" stroke-width=""/>
<text x="825.0" y="105.5" text-anchor="middle" fill="#aaa" font-size="9">升降平台</text>
<rect x="55.0" y="120.0" width="60.0" height="10.0" rx="2.0" fill="#10B981" stroke="" stroke-width=""/>
<text x="85.0" y="125.0" text-anchor="middle" fill="#aaa" font-size="9">造型設計區</text>
<text x="20" y="225.0" fill="#8B5CF6" font-size="13" font-weight="bold">樓層 2</text>
<rect x="20" y="230.0" width="860" height="140" rx="4" fill="#0d0d1a" stroke="#4a2a6a" stroke-width="1"/>
<rect x="20.0" y="230.0" width="860.0" height="100.0" rx="4.0" fill="#0d0d1a" stroke="#4a2a6a" stroke-width="1"/>
<text x="450.0" y="280.0" text-anchor="middle" fill="#aaa" font-size="9">陷阱識別區</text>
<rect x="35.0" y="242.0" width="80.0" height="50.0" rx="3.0" fill="#1a1030" stroke="#666" stroke-width=""/>
<text x="75.0" y="267.0" text-anchor="middle" fill="#aaa" font-size="9">武器訓練場</text>
<rect x="130.0" y="242.0" width="80.0" height="50.0" rx="3.0" fill="#1a1030" stroke="#666" stroke-width=""/>
<text x="170.0" y="267.0" text-anchor="middle" fill="#aaa" font-size="9">生存技能區</text>
<rect x="225.0" y="242.0" width="80.0" height="50.0" rx="3.0" fill="#1a1030" stroke="#666" stroke-width=""/>
<text x="265.0" y="267.0" text-anchor="middle" fill="#aaa" font-size="9">偽裝彩繪區</text>
<rect x="320.0" y="242.0" width="80.0" height="50.0" rx="3.0" fill="#1a1030" stroke="#666" stroke-width=""/>
<text x="360.0" y="267.0" text-anchor="middle" fill="#aaa" font-size="9">繩索/結繩區</text>
<rect x="415.0" y="242.0" width="80.0" height="50.0" rx="3.0" fill="#1a1030" stroke="#666" stroke-width=""/>
<text x="455.0" y="267.0" text-anchor="middle" fill="#aaa" font-size="9">陷阱識別區</text>
<rect x="510.0" y="242.0" width="80.0" height="50.0" rx="3.0" fill="#1a1030" stroke="#666" stroke-width=""/>
<text x="550.0" y="267.0" text-anchor="middle" fill="#aaa" font-size="9">重物投擲區</text>
<rect x="605.0" y="242.0" width="80.0" height="50.0" rx="3.0" fill="#1a1030" stroke="#666" stroke-width=""/>
<text x="645.0" y="267.0" text-anchor="middle" fill="#aaa" font-size="9">競技場模型室</text>
<text x="20" y="360.0" fill="#8B5CF6" font-size="13" font-weight="bold">樓層 3</text>
<rect x="20" y="365.0" width="860" height="140" rx="4" fill="#0d0d1a" stroke="#4a2a6a" stroke-width="1"/>
<rect x="20.0" y="365.0" width="860.0" height="200.0" rx="4.0" fill="#0d0d1a" stroke="#6D28D9" stroke-width="1.5"/>
<text x="450.0" y="465.0" text-anchor="middle" fill="#aaa" font-size="9">(武器+物資堆)</text>
<rect x="480.0" y="388.0" width="100.0" height="50.0" rx="3.0" fill="#FF0000" stroke="#FF4444" stroke-width="1"/>
<text x="530.0" y="413.0" text-anchor="middle" fill="#aaa" font-size="9">職業貢品</text>
<rect x="360.0" y="400.0" width="160.0" height="100.0" rx="15.0" fill="#2a2a1a" stroke="#FFAA00" stroke-width="3"/>
<text x="440.0" y="450.0" text-anchor="middle" fill="#aaa" font-size="9">豐饒角</text>
<text x="20" y="565.0" fill="#8B5CF6" font-size="13" font-weight="bold">樓層 4</text>
<rect x="20" y="570.0" width="860" height="140" rx="4" fill="#0d0d1a" stroke="#4a2a6a" stroke-width="1"/>
<rect x="35.0" y="570.0" width="820.0" height="55.0" rx="4.0" fill="#111" stroke="#333" stroke-width=""/>
<text x="445.0" y="597.5" text-anchor="middle" fill="#aaa" font-size="9">HG_EM-01 | 探索地圖 | 貢品大樓--競技場</text>
<rect x="50.0" y="582.0" width="14.0" height="10.0" rx="0.0" fill="#2a2a1a" stroke="#FFAA00" stroke-width=""/>
<text x="57.0" y="587.0" text-anchor="middle" fill="#aaa" font-size="9">豐饒角(物資集中)</text>
<rect x="170.0" y="582.0" width="14.0" height="10.0" rx="0.0" fill="#FF0000" stroke="#FF4444" stroke-width=""/>
<text x="177.0" y="587.0" text-anchor="middle" fill="#aaa" font-size="9">職業貢品控制區</text>
<rect x="20" y="585" width="860" height="40" rx="4" fill="#111" stroke="#333"/>
<text x="35" y="610" fill="#aaa" font-size="9">HG_EM-01 | 探索地圖 | 貢品大樓--競技場</text>
<text x="20" y="630" fill="#666" font-size="9">HG_EM-01 | 探索地圖 </text>
</svg>