<svg xmlns="http://www.w3.org/2000/svg" viewBox="0 0 680 540" font-family="Microsoft JhengHei, sans-serif">
<defs>
  <pattern id="grid" width="30" height="30" patternUnits="userSpaceOnUse">
    <path d="M 30 0 L 0 0 0 30" fill="none" stroke="#2a2a4a" stroke-width="0.3"/>
  </pattern>
</defs>
<rect width="680" height="540" fill="#1a1a2e"/>
<rect x="20" y="20" width="640" height="500" fill="url(#grid)"/>
<rect x="20" y="20" width="640" height="500" fill="none" stroke="#4a2a6a" stroke-width="2"/>
<text x="340.0" y="12" text-anchor="middle" fill="#C084FC" font-size="14" font-weight="bold">燈塔據點防禦戰</text>
<text x="25" y="532" fill="#666" font-size="9">BR_BM-01 | 9×12格（概念） | 1格 = 5ft | 總 45×60ft</text>
<text x="35.0" y="15" text-anchor="middle" fill="#555" font-size="7">1</text>
<text x="65.0" y="15" text-anchor="middle" fill="#555" font-size="7">2</text>
<text x="95.0" y="15" text-anchor="middle" fill="#555" font-size="7">3</text>
<text x="125.0" y="15" text-anchor="middle" fill="#555" font-size="7">4</text>
<text x="155.0" y="15" text-anchor="middle" fill="#555" font-size="7">5</text>
<text x="185.0" y="15" text-anchor="middle" fill="#555" font-size="7">6</text>
<text x="215.0" y="15" text-anchor="middle" fill="#555" font-size="7">7</text>
<text x="245.0" y="15" text-anchor="middle" fill="#555" font-size="7">8</text>
<text x="275.0" y="15" text-anchor="middle" fill="#555" font-size="7">9</text>
<text x="8" y="38.0" text-anchor="middle" fill="#555" font-size="7">A</text>
<text x="8" y="68.0" text-anchor="middle" fill="#555" font-size="7">B</text>
<text x="8" y="98.0" text-anchor="middle" fill="#555" font-size="7">C</text>
<text x="8" y="128.0" text-anchor="middle" fill="#555" font-size="7">D</text>
<text x="8" y="158.0" text-anchor="middle" fill="#555" font-size="7">E</text>
<text x="8" y="188.0" text-anchor="middle" fill="#555" font-size="7">F</text>
<text x="8" y="218.0" text-anchor="middle" fill="#555" font-size="7">G</text>
<text x="8" y="248.0" text-anchor="middle" fill="#555" font-size="7">H</text>
<text x="8" y="278.0" text-anchor="middle" fill="#555" font-size="7">I</text>
<text x="8" y="308.0" text-anchor="middle" fill="#555" font-size="7">J</text>
<text x="8" y="338.0" text-anchor="middle" fill="#555" font-size="7">K</text>
<text x="8" y="368.0" text-anchor="middle" fill="#555" font-size="7">L</text>
<rect x="100.0" y="100.0" width="90.0" height="180.0" rx="3" fill="#1a2a30" stroke="#3B82F6" stroke-width="2.5"/>
<text x="145.0" y="186.0" text-anchor="middle" fill="#aaa" font-size="8">管理室門</text>
<text x="145.0" y="200.0" text-anchor="middle" fill="#666" font-size="6">(17.5, 25.0)ft</text>
<rect x="110.0" y="170.0" width="70.0" height="20.0" rx="5" fill="#2a2a3e" stroke="#555" stroke-width=""/>
<text x="145.0" y="176.0" text-anchor="middle" fill="#aaa" font-size="8">管理室門</text>
<text x="145.0" y="190.0" text-anchor="middle" fill="#666" font-size="6">(20.0, 22.5)ft</text>
<rect x="110.0" y="215.0" width="70.0" height="20.0" rx="5" fill="#2a2a3e" stroke="#555" stroke-width=""/>
<text x="145.0" y="221.0" text-anchor="middle" fill="#aaa" font-size="8">塔底入口</text>
<text x="145.0" y="235.0" text-anchor="middle" fill="#666" font-size="6">(20.0, 32.5)ft</text>
<rect x="120.0" y="255.0" width="50.0" height="20.0" rx="3" fill="#162040" stroke="#F59E0B" stroke-width="1.5"/>
<text x="145.0" y="261.0" text-anchor="middle" fill="#aaa" font-size="8">入口</text>
<text x="145.0" y="275.0" text-anchor="middle" fill="#666" font-size="6">(20.0, 37.5)ft</text>
<rect x="230.0" y="55.0" width="30.0" height="70.0" rx="3" fill="#2a2a2a" stroke="#F59E0B" stroke-width="1.5"/>
<text x="245.0" y="86.0" text-anchor="middle" fill="#aaa" font-size="8">S-02</text>
<text x="245.0" y="100.0" text-anchor="middle" fill="#666" font-size="6">(37.5, 5.0)ft</text>
<rect x="225.0" y="125.0" width="40.0" height="20.0" rx="3" fill="#162040" stroke="#F59E0B" stroke-width=""/>
<text x="245.0" y="131.0" text-anchor="middle" fill="#aaa" font-size="8">控制室</text>
<text x="245.0" y="145.0" text-anchor="middle" fill="#666" font-size="6">(32.5, 17.5)ft</text>
<rect x="175.0" y="240.0" width="20.0" height="5.0" rx="5" fill="#FFAA00" stroke="" stroke-width=""/>
<text x="185.0" y="238.5" text-anchor="middle" fill="#aaa" font-size="8">路障</text>
<text x="185.0" y="252.5" text-anchor="middle" fill="#666" font-size="6">(27.5, 37.5)ft</text>
<rect x="175.0" y="330.0" width="20.0" height="5.0" rx="5" fill="#FFAA00" stroke="" stroke-width=""/>
<text x="185.0" y="328.5" text-anchor="middle" fill="#aaa" font-size="8">路障</text>
<text x="185.0" y="342.5" text-anchor="middle" fill="#666" font-size="6">(27.5, 52.5)ft</text>
<rect x="55.0" y="280.0" width="20.0" height="10.0" rx="3" fill="#334" stroke="#555" stroke-width=""/>
<text x="65.0" y="281.0" text-anchor="middle" fill="#aaa" font-size="8">掩體</text>
<text x="65.0" y="295.0" text-anchor="middle" fill="#666" font-size="6">(7.5, 42.5)ft</text>
<rect x="55.0" y="310.0" width="20.0" height="10.0" rx="3" fill="#334" stroke="#555" stroke-width=""/>
<text x="65.0" y="311.0" text-anchor="middle" fill="#aaa" font-size="8">掩體</text>
<text x="65.0" y="325.0" text-anchor="middle" fill="#666" font-size="6">(7.5, 47.5)ft</text>
<rect x="130.0" y="300.0" width="50.0" height="40.0" rx="3" fill="none" stroke="#00FF88" stroke-width="1.5"/>
<text x="155.0" y="316.0" text-anchor="middle" fill="#aaa" font-size="8">玩家防守區</text>
<text x="155.0" y="330.0" text-anchor="middle" fill="#666" font-size="6">(20.0, 47.5)ft</text>
</svg>